<svg xmlns="http://www.w3.org/2000/svg" xmlns:xlink="http://www.w3.org/1999/xlink" width="280"
  height="280" viewBox="0 0 280 280" fill="none">
  <defs>
    <linearGradient id="bg-gradient" x1="0%" y1="0%" x2="100%" y2="100%">
      <stop offset="0%" style="stop-color:#0F172A;stop-opacity:1" />
      <stop offset="100%" style="stop-color:#38BDF8;stop-opacity:1" />
    </linearGradient>
    <linearGradient id="thunder-gradient" x1="0%" y1="0%" x2="100%" y2="100%">
      <stop offset="0%" style="stop-color:#F97316;stop-opacity:1" />
      <stop offset="100%" style="stop-color:#FDE047;stop-opacity:1" />
    </linearGradient>
    <linearGradient id="circle-gradient" x1="0%" y1="0%" x2="100%" y2="100%">
      <stop offset="0%" style="stop-color:#FFFFFF;stop-opacity:1" />
      <stop offset="100%" style="stop-color:#A7F3D0;stop-opacity:1" />
    </linearGradient>
    <linearGradient id="rect-gradient" x1="0%" y1="0%" x2="100%" y2="100%">
      <stop offset="0%" style="stop-color:#0F172A;stop-opacity:1" />
      <stop offset="100%" style="stop-color:#F3F4F6;stop-opacity:1" />
    </linearGradient>
    <clipPath id="clip-path-qyTQW4_Z1cYGq862qG5gx">
      <path d="M4.15148e-08 280L280 280L280 -4.15148e-08L0 0L4.15148e-08 280Z" fill="white" />
    </clipPath>
  </defs>
  <g clip-path="url(#clip-path-qyTQW4_Z1cYGq862qG5gx)">
    <rect width="280" height="280" fill="url(#bg-gradient)" />
    <circle cx="140.00018310546875" cy="140.00033569335938" r="140" fill="url(#circle-gradient)" />
    <path
      d="M153.906 82.5748L116.996 127.937L113.406 133.683L148.537 148.568L123.604 200.492L160.518 155.132L164.618 148.57L128.408 133.679L153.906 82.5748Z"
      fill-rule="evenodd" fill="url(#thunder-gradient)" />
    <path
      d="M264.747 76.4375L76.4382 15.2521L15.2524 203.562L203.562 264.748L264.747 76.4375ZM220.527 99.9222L99.5518 60.615L60.2446 181.59L181.22 220.897L220.527 99.9222Z"
      fill-rule="evenodd" fill="url(#rect-gradient)" />
  </g>
</svg>
