<svg xmlns="http://www.w3.org/2000/svg" viewBox="0 0 500 500">
  <g transform="translate(0,500) scale(0.1,-0.1)" fill="currentColor" stroke="none">
    <path
      d="M1745 3666 c-5 -2 -37 -12 -70 -21 -107 -31 -209 -91 -275 -161 -64
-69 -130 -190 -151 -279 -18 -75 -15 -271 7 -375 l18 -89 -25 -38 c-43 -66
-80 -155 -107 -253 -34 -129 -36 -334 -4 -453 36 -133 93 -230 197 -332 100
-99 180 -150 339 -215 409 -167 1021 -196 1491 -71 340 91 564 270 666 534 45
118 59 196 59 337 0 186 -28 282 -123 433 l-49 78 12 61 c6 34 12 113 11 177
0 283 -99 490 -278 584 -128 67 -288 95 -374 65 -102 -35 -253 -158 -340 -278
l-44 -60 -195 0 -196 0 -48 69 c-67 98 -180 203 -268 248 -64 32 -83 37 -158
40 -47 1 -89 1 -95 -1z m137 -85 c66 -25 137 -72 221 -144 60 -51 123 -132
110 -140 -5 -3 -35 -10 -68 -17 -33 -7 -65 -16 -70 -20 -6 -5 -38 23 -80 72
-44 51 -89 91 -122 109 -56 31 -149 59 -198 59 -28 0 -30 3 -31 36 0 20 -6 39
-13 44 -9 5 -5 11 15 19 44 16 171 7 236 -18z m1529 0 c24 -12 52 -32 62 -44
10 -12 15 -15 11 -7 -5 11 -4 12 4 5 20 -18 20 -59 1 -73 -15 -11 -24 -10 -51
5 -25 14 -56 18 -128 18 -130 0 -193 -29 -307 -138 l-82 -80 -83 18 -84 17 26
30 c50 60 142 148 155 148 3 0 21 11 38 24 39 30 128 75 182 93 63 20 201 12
256 -16z m-44 -271 c11 0 63 -45 63 -55 0 -2 -5 -7 -12 -11 -7 -5 -8 -3 -3 6
5 8 3 11 -6 8 -8 -3 -14 -11 -14 -19 -1 -29 -17 -79 -26 -79 -5 0 -9 -7 -9
-15 0 -8 -7 -15 -16 -15 -8 0 -12 -5 -9 -10 4 -6 10 -8 15 -5 5 3 11 1 14 -4
9 -15 -13 -7 -94 31 -41 19 -93 41 -114 48 l-39 13 24 19 c91 72 152 101 194
92 11 -2 25 -4 32 -4z m-1522 -73 l38 -31 -49 -16 c-50 -18 -74 -9 -52 17 7 9
7 13 -1 13 -7 0 -10 4 -7 9 3 5 -1 14 -9 21 -8 7 -13 16 -10 20 9 14 53 -2 90
-33z m900 -12 c105 -15 203 -41 295 -76 104 -41 200 -91 211 -110 6 -13 6 -19
0 -19 -13 0 -52 -75 -44 -84 4 -3 -1 -6 -10 -6 -15 0 -21 -11 -18 -32 0 -4 -6
-5 -15 -1 -9 3 -14 0 -12 -8 4 -19 -36 -12 -92 16 -68 34 -229 83 -333 101
-71 12 -136 15 -282 11 -172 -4 -201 -7 -306 -35 -63 -17 -139 -40 -169 -51
l-53 -20 -33 26 c-19 14 -34 34 -34 44 0 9 -9 21 -21 24 -15 5 -17 10 -9 20 7
9 7 14 1 17 -6 1 -8 13 -5 24 13 51 296 146 494 167 92 10 344 5 435 -8z
m-845 -315 c0 -5 -2 -10 -4 -10 -3 0 -8 5 -11 10 -3 6 -1 10 4 10 6 0 11 -4
11 -10z m92 -542 c37 -26 67 -90 68 -141 0 -81 -68 -160 -139 -160 -87 0 -145
66 -144 165 2 134 116 207 215 136z m1159 -14 c42 -40 59 -76 59 -126 0 -83
-64 -158 -135 -158 -39 0 -92 34 -123 80 -31 46 -28 137 6 173 12 13 19 27 15
31 -5 4 -3 7 2 5 15 -3 46 12 40 20 -2 4 21 7 51 6 46 -2 60 -7 85 -31z m-523
-372 c12 -7 22 -20 22 -29 0 -33 -42 -104 -71 -118 -41 -22 -117 -19 -157 5
-58 36 -91 117 -59 149 16 17 231 10 265 -7z" />
  </g>
</svg>
