<svg xmlns="http://www.w3.org/2000/svg" xmlns:xlink="http://www.w3.org/1999/xlink" width="280"
  height="280" fill="none" viewBox="0 0 280 280">
  <g clip-path="url(#clip-path-qyTQW4_Z1cYGq862qG5gx)">
    <path fill="#007ACC" fill-rule="evenodd"
      d="M140 280C217.32 280 280 217.32 280 140C280 62.6805 217.32 0.000335661 140 0.000335673C62.6803 0.000335684 0.000183115 62.6805 0.000183126 140C0.000183138 217.32 62.6803 280 140 280ZM140 260C205.17 260 258 206.498 258 140.5C258 74.5023 205.17 21.0003 140 21.0003C74.8306 21.0003 22.0002 74.5023 22.0002 140.5C22.0002 206.498 74.8306 260 140 260Z" />
    <path fill="#007ACC" fill-rule="evenodd"
      d="M244.499 87.132L87.1322 36.0003L36.0002 193.368L193.367 244.5L244.499 87.132ZM207.545 106.758L106.448 73.9095L73.5995 175.006L174.696 207.855L207.545 106.758Z" />
    <path fill="#007ACC" fill-rule="evenodd"
      d="M151.31 92.6801L120.726 130.267L117.751 135.028L146.861 147.363L126.201 190.387L156.788 152.801L160.185 147.364L130.181 135.025L151.31 92.6801Z" />
  </g>
  <defs>
    <clipPath id="clip-path-qyTQW4_Z1cYGq862qG5gx">
      <path fill="#fff" d="M4.15148e-08 280L280 280L280 -4.15148e-08L0 0L4.15148e-08 280Z" />
    </clipPath>
  </defs>
</svg>
